name GIL08_slow4.mot
datacolumns 153
datarows 4
range 0.21666671 0.24166670
endheader

                time	           pelvis_tx	           pelvis_ty	           pelvis_tz	         pelvis_tilt	         pelvis_list	     pelvis_rotation	       hip_flexion_r	     hip_adduction_r	      hip_rotation_r	        knee_angle_r	       ankle_angle_r	    subtalar_angle_r	         mtp_angle_r	       hip_flexion_l	     hip_adduction_l	      hip_rotation_l	        knee_angle_l	       ankle_angle_l	    subtalar_angle_l	         mtp_angle_l	    lumbar_extension	      lumbar_bending	     lumbar_rotation	     ground_force_vx	     ground_force_vy	     ground_force_vz	     ground_force_px	     ground_force_py	     ground_force_pz	     ground_force_vx	     ground_force_vy	     ground_force_vz	     ground_force_px	     ground_force_py	     ground_force_pz	     ground_torque_x	     ground_torque_y	     ground_torque_z	     ground_torque_x	     ground_torque_y	     ground_torque_z	    ground_marker_px	    ground_marker_py	    ground_marker_pz	    ground_marker_px	    ground_marker_py	    ground_marker_pz	    ground_marker_px	    ground_marker_py	    ground_marker_pz	    ground_marker_px	    ground_marker_py	    ground_marker_pz	    ground_marker_px	    ground_marker_py	    ground_marker_pz	    ground_marker_px	    ground_marker_py	    ground_marker_pz	    ground_marker_px	    ground_marker_py	    ground_marker_pz	    ground_marker_px	    ground_marker_py	    ground_marker_pz	    ground_marker_px	    ground_marker_py	    ground_marker_pz	    ground_marker_px	    ground_marker_py	    ground_marker_pz	    ground_marker_px	    ground_marker_py	    ground_marker_pz	    ground_marker_px	    ground_marker_py	    ground_marker_pz	    ground_marker_px	    ground_marker_py	    ground_marker_pz	    ground_marker_px	    ground_marker_py	    ground_marker_pz	    ground_marker_px	    ground_marker_py	    ground_marker_pz	    ground_marker_px	    ground_marker_py	    ground_marker_pz	    ground_marker_px	    ground_marker_py	    ground_marker_pz	    ground_marker_px	    ground_marker_py	    ground_marker_pz	    ground_marker_px	    ground_marker_py	    ground_marker_pz	    ground_marker_px	    ground_marker_py	    ground_marker_pz	    ground_marker_px	    ground_marker_py	    ground_marker_pz	    ground_marker_px	    ground_marker_py	    ground_marker_pz	    ground_marker_px	    ground_marker_py	    ground_marker_pz	    ground_marker_px	    ground_marker_py	    ground_marker_pz	    ground_marker_px	    ground_marker_py	    ground_marker_pz	    ground_marker_px	    ground_marker_py	    ground_marker_pz	    ground_marker_px	    ground_marker_py	    ground_marker_pz	    ground_marker_px	    ground_marker_py	    ground_marker_pz	    ground_marker_px	    ground_marker_py	    ground_marker_pz	    ground_marker_px	    ground_marker_py	    ground_marker_pz	    ground_marker_px	    ground_marker_py	    ground_marker_pz	    ground_marker_px	    ground_marker_py	    ground_marker_pz	    ground_marker_px	    ground_marker_py	    ground_marker_pz	    ground_marker_px	    ground_marker_py	    ground_marker_pz	    ground_marker_px	    ground_marker_py	    ground_marker_pz	    ground_marker_px	    ground_marker_py	    ground_marker_pz	    ground_marker_px	    ground_marker_py	    ground_marker_pz	
          0.21666671	         -2.14684153	          0.98200631	          0.21234585	          4.00481462	          4.26112461	         -4.68850851	         -9.48333740	         -8.01266003	          7.03159046	        -37.34744644	        -10.97090340	          0.00000000	          0.00000000	          6.31970978	          0.80545819	          4.49585104	         -6.00795889	         -3.83886218	          0.00000000	          0.00000000	        -16.15215111	         -8.30250168	          3.65467238	          0.00000000	          0.00000000	          0.00000000	         -1.69904846	          0.00000000	          0.24741010	        -50.54240940	        556.73713565	         14.41557115	         -2.10814990	          0.00000000	          0.14927911	          0.00000000	          0.00000000	          0.00000000	          0.00000000	          0.71717896	          0.00000000	         -2.22907639	          0.89600801	          0.20385744	         -2.23090053	          0.88316214	          0.25207850	         -2.22117686	          0.88976574	          0.14615875	         -2.27579546	          0.46722215	          0.28083703	         -2.14818335	          0.48404071	          0.13339829	         -2.56526923	          0.16298871	          0.29325059	         -2.12429547	          0.06790069	          0.15369648	         -2.14684153	          0.98200631	          0.21234585	         -2.15623379	          0.97562802	          0.31465274	         -2.13744950	          0.98838466	          0.11003897	         -2.35092759	          1.00889969	          0.23945294	         -2.34647393	          1.01411319	          0.15472323	         -2.27312660	          0.47103539	          0.34015474	         -2.13805342	          0.48770359	          0.07488149	         -2.26013994	          0.46995464	          0.22228296	         -2.16737294	          0.48094723	          0.17902620	         -2.57144141	          0.17036133	          0.33001402	         -2.12755752	          0.06579605	          0.11438771	         -2.55979705	          0.17227127	          0.26130274	         -2.11961818	          0.07805365	          0.18273519	         -2.29266930	          1.46376622	          0.18338688	         -2.19403386	          1.40970540	          0.26213700	         -2.19421458	          1.40021849	          0.11903612	         -2.20652127	          1.40490675	          0.18663518	         -2.15093517	          1.20770979	          0.19287845	         -2.23859882	          0.57281303	          0.41876748	         -2.02422667	          0.63206190	          0.13972645	         -2.20519924	          0.62904215	          0.34912521	         -2.10243607	          0.68002552	          0.09054220	         -2.20913959	          0.54651886	          0.33063665	         -2.09999728	          0.59246224	          0.09400984	         -2.51260638	          0.22787045	          0.39638290	         -2.02780294	          0.18975164	          0.15149304	         -2.48040152	          0.27496597	          0.33257249	         -2.09682512	          0.23288359	          0.13827743	         -2.51615334	          0.05437841	          0.27165034	         -1.99558091	          0.04217980	          0.14897794	
          0.22500004	         -2.14044404	          0.98239249	          0.21130058	          3.93517685	          4.21871424	         -4.56079435	         -8.81568909	         -8.01428890	          6.99626207	        -38.50527573	        -10.80556202	          0.00000000	          0.00000000	          5.94517708	          0.86481267	          4.32501125	         -5.98537302	         -3.48237014	          0.00000000	          0.00000000	        -16.12553596	         -8.38134480	          3.67692900	          0.00000000	          0.00000000	          0.00000000	         -1.69447913	          0.00000000	          0.24725949	        -48.92209086	        565.05534580	         14.79083776	         -2.10793188	          0.00000000	          0.14929285	          0.00000000	          0.00000000	          0.00000000	          0.00000000	          0.72652063	          0.00000000	         -2.22280049	          0.89661694	          0.20327911	         -2.22451520	          0.88365352	          0.25126868	         -2.21502829	          0.89020228	          0.14532402	         -2.26498938	          0.46722999	          0.28072509	         -2.14522839	          0.48423803	          0.13273726	         -2.55731869	          0.16587485	          0.29445928	         -2.12423515	          0.06789837	          0.15365866	         -2.14044404	          0.98239249	          0.21130058	         -2.14960980	          0.97606528	          0.31366149	         -2.13127828	          0.98871970	          0.10893967	         -2.34471416	          1.00940108	          0.23887311	         -2.34016943	          1.01481104	          0.15442491	         -2.26230335	          0.47116429	          0.34003413	         -2.13539147	          0.48774552	          0.07416097	         -2.25018978	          0.46970984	          0.22230919	         -2.16455746	          0.48126799	          0.17834274	         -2.56305170	          0.17311621	          0.33131975	         -2.12748647	          0.06575917	          0.11435087	         -2.55199575	          0.17568512	          0.26264459	         -2.11955428	          0.07810213	          0.18273745	         -2.28631687	          1.46433103	          0.18210307	         -2.18743324	          1.41028535	          0.26050466	         -2.18804145	          1.40055859	          0.11751523	         -2.20014596	          1.40536940	          0.18509510	         -2.14469051	          1.20814133	          0.19151497	         -2.22879553	          0.57323170	          0.41847304	         -2.02025414	          0.63112408	          0.13817582	         -2.19605970	          0.62948173	          0.34859869	         -2.09831285	          0.67968512	          0.08937115	         -2.19942713	          0.54694104	          0.33032608	         -2.09664249	          0.59212941	          0.09288584	         -2.50287318	          0.22980671	          0.39737514	         -2.02705717	          0.18913257	          0.15133274	         -2.47094584	          0.27724415	          0.33345211	         -2.09577489	          0.23268805	          0.13791320	         -2.50927520	          0.05714418	          0.27174488	         -1.99555743	          0.04207960	          0.14898817	
          0.23333338	         -2.13417077	          0.98276389	          0.21028467	          3.87779808	          4.17489719	         -4.42850924	         -8.15179729	         -7.99663162	          7.03388548	        -39.59649277	        -10.19452763	          0.00000000	          0.00000000	          5.56869507	          0.92384166	          4.17184544	         -5.97326422	         -3.12225914	          0.00000000	          0.00000000	        -16.15146065	         -8.46964073	          3.72786570	          0.00000000	          0.00000000	          0.00000000	         -1.69031042	          0.00000000	          0.24713034	        -46.97027716	        572.59977712	         15.43025453	         -2.10767773	          0.00000000	          0.14924792	          0.00000000	          0.00000000	          0.00000000	          0.00000000	          0.74097546	          0.00000000	         -2.21662188	          0.89715981	          0.20258224	         -2.21822810	          0.88411224	          0.25049621	         -2.20898890	          0.89060730	          0.14452635	         -2.25419402	          0.46726114	          0.28049648	         -2.14230394	          0.48442551	          0.13212216	         -2.54896212	          0.16842693	          0.29554361	         -2.12419987	          0.06789426	          0.15359908	         -2.13417077	          0.98276389	          0.21028467	         -2.14310217	          0.97648519	          0.31272474	         -2.12523937	          0.98904258	          0.10784459	         -2.33853340	          1.00984597	          0.23844258	         -2.33404088	          1.01543856	          0.15410690	         -2.25141430	          0.47128895	          0.33979490	         -2.13274980	          0.48778459	          0.07349040	         -2.23998308	          0.46948236	          0.22211413	         -2.16231275	          0.48177311	          0.17790213	         -2.55425930	          0.17551287	          0.33249938	         -2.12741303	          0.06572776	          0.11428964	         -2.54378915	          0.17870864	          0.26383755	         -2.11944890	          0.07814713	          0.18266745	         -2.28001785	          1.46491814	          0.18085688	         -2.18086624	          1.41081202	          0.25892949	         -2.18200350	          1.40084863	          0.11604445	         -2.19385767	          1.40578961	          0.18361694	         -2.13867426	          1.20848978	          0.19017388	         -2.21882486	          0.57362199	          0.41809613	         -2.01636028	          0.63016033	          0.13670167	         -2.18679476	          0.62992543	          0.34796530	         -2.09424829	          0.67930073	          0.08830613	         -2.18952060	          0.54731143	          0.32983351	         -2.09361720	          0.59171575	          0.09189653	         -2.49281979	          0.23141420	          0.39825034	         -2.02635074	          0.18854076	          0.15124245	         -2.46130323	          0.27928951	          0.33424094	         -2.09522343	          0.23249987	          0.13772455	         -2.50111246	          0.06006271	          0.27181613	         -1.99553406	          0.04198541	          0.14899154	
          0.24166670	         -2.12802720	          0.98315084	          0.20930243	          3.83689308	          4.12396860	         -4.29515982	         -7.50293779	         -7.95537710	          7.15517473	        -40.59280014	         -9.20113945	          0.00000000	          0.00000000	          5.18092918	          0.97478479	          4.06330109	         -5.95931244	         -2.76177573	          0.00000000	          0.00000000	        -16.17299652	         -8.49868107	          3.81652141	          0.00000000	          0.00000000	          0.00000000	         -1.68652979	          0.00000000	          0.24702374	        -44.86541451	        577.74452534	         16.26393408	         -2.10741064	          0.00000000	          0.14915178	          0.00000000	          0.00000000	          0.00000000	          0.00000000	          0.75641376	          0.00000000	         -2.21055007	          0.89762777	          0.20173748	         -2.21204066	          0.88456726	          0.24977198	         -2.20305490	          0.89099890	          0.14377651	         -2.24346590	          0.46733433	          0.28016737	         -2.13943791	          0.48460689	          0.13154916	         -2.54013991	          0.17055780	          0.29649496	         -2.12418723	          0.06789750	          0.15352696	         -2.12802720	          0.98315084	          0.20930243	         -2.13672018	          0.97692871	          0.31184408	         -2.11933422	          0.98937291	          0.10676076	         -2.33236027	          1.01025105	          0.23816824	         -2.32809210	          1.01600242	          0.15376170	         -2.24050450	          0.47143018	          0.33945230	         -2.13012767	          0.48782986	          0.07287056	         -2.22998357	          0.46956524	          0.22161202	         -2.16130972	          0.48272222	          0.17767249	         -2.54502583	          0.17748018	          0.33353826	         -2.12734866	          0.06570841	          0.11421458	         -2.53527117	          0.18127897	          0.26482368	         -2.11934519	          0.07818970	          0.18255205	         -2.27378678	          1.46549618	          0.17963147	         -2.17427516	          1.41126931	          0.25737473	         -2.17600250	          1.40121460	          0.11456195	         -2.18757725	          1.40621281	          0.18214872	         -2.13259149	          1.20885491	          0.18861642	         -2.20870829	          0.57399750	          0.41764075	         -2.01255250	          0.62920302	          0.13537852	         -2.17739201	          0.63041806	          0.34719992	         -2.09031916	          0.67892146	          0.08734425	         -2.17958808	          0.54777223	          0.32908297	         -2.09127831	          0.59126508	          0.09101972	         -2.48246717	          0.23267536	          0.39900407	         -2.02567697	          0.18797752	          0.15118967	         -2.45150685	          0.28089231	          0.33498728	         -2.09516454	          0.23233864	          0.13778640	         -2.49166417	          0.06300522	          0.27188209	         -1.99551988	          0.04191037	          0.14898810	
